STARTFONT 2.1
FONT -dse-dotmatrix-medium-r-normal--20-140-100-100-c-140-fontspecific-0
SIZE 140 100 100
FONTBOUNDINGBOX 14 20 0 -5
STARTPROPERTIES 20
DEFAULT_CHAR 32
FONTNAME_REGISTRY ""
FOUNDRY "dse"
FAMILY_NAME "dotmatrix"
WEIGHT_NAME "medium"
SLANT "r"
SETWIDTH_NAME "normal"
ADD_STYLE_NAME ""
POINT_SIZE 1
PIXEL_SIZE 20
RESOLUTION_X 100
RESOLUTION_Y 100
FONT_ASCENT 15
FONT_DESCENT 5
AVERAGE_WIDTH 140
SPACING "C"
_XMBDFED_INFO "Edited with xmbdfed 4.5."
CHARSET_REGISTRY "fontspecific"
CHARSET_ENCODING "0"
COPYRIGHT "Copyright (C) 2002 by Darren Stuart Embry"
ENDPROPERTIES
CHARS 95
STARTCHAR char32
ENCODING 32
SWIDTH 0 0
DWIDTH 14 0
BBX 11 15 0 -1
BITMAP
0000
0000
0000
0000
0000
0000
0000
0000
0000
0000
0000
0000
0000
0000
0000
0000
0000
ENDCHAR
STARTCHAR char33
ENCODING 33
SWIDTH 0 0
DWIDTH 14 0
BBX 3 15 4 -1
BITMAP
0000
0000
40
E0
40
E0
40
E0
40
E0
40
00
00
00
40
E0
40
ENDCHAR
STARTCHAR char34
ENCODING 34
SWIDTH 0 0
DWIDTH 14 0
BBX 7 7 2 7
BITMAP
0000
0000
44
EE
44
EE
44
EE
44
ENDCHAR
STARTCHAR char35
ENCODING 35
SWIDTH 0 0
DWIDTH 14 0
BBX 11 15 0 -1
BITMAP
0000
0000
1100
3B80
1100
3B80
5540
FFE0
5540
3B80
5540
FFE0
5540
3B80
1100
3B80
1100
ENDCHAR
STARTCHAR char36
ENCODING 36
SWIDTH 0 0
DWIDTH 14 0
BBX 11 15 0 -1
BITMAP
0000
0000
0400
0E00
1540
3FE0
5540
EE00
5500
3F80
1540
0EE0
5540
FF80
5500
0E00
0400
ENDCHAR
STARTCHAR char37
ENCODING 37
SWIDTH 0 0
DWIDTH 14 0
BBX 11 15 0 -1
BITMAP
0000
0000
5000
F800
5040
F8E0
5140
0380
0500
0E00
1400
3800
5140
E3E0
4140
03E0
0140
ENDCHAR
STARTCHAR char38
ENCODING 38
SWIDTH 0 0
DWIDTH 14 0
BBX 11 15 0 -1
BITMAP
0000
0000
1000
3800
5400
EE00
4400
EE00
5400
3800
5440
EEE0
4540
E380
5540
3EE0
1440
ENDCHAR
STARTCHAR char39
ENCODING 39
SWIDTH 0 0
DWIDTH 14 0
BBX 3 7 4 7
BITMAP
0000
0000
40
E0
40
E0
40
E0
40
ENDCHAR
STARTCHAR char40
ENCODING 40
SWIDTH 0 0
DWIDTH 14 0
BBX 7 15 2 -1
BITMAP
0000
0000
04
0E
14
38
50
E0
40
E0
40
E0
50
38
14
0E
04
ENDCHAR
STARTCHAR char41
ENCODING 41
SWIDTH 0 0
DWIDTH 14 0
BBX 7 15 2 -1
BITMAP
0000
0000
40
E0
50
38
14
0E
04
0E
04
0E
14
38
50
E0
40
ENDCHAR
STARTCHAR char42
ENCODING 42
SWIDTH 0 0
DWIDTH 14 0
BBX 11 15 0 -1
BITMAP
0000
0000
0400
0E00
4440
EEE0
5540
3F80
1500
0E00
1500
3F80
5540
EEE0
4440
0E00
0400
ENDCHAR
STARTCHAR char43
ENCODING 43
SWIDTH 0 0
DWIDTH 14 0
BBX 11 11 0 1
BITMAP
0000
0000
0400
0E00
0400
0E00
5540
FFE0
5540
0E00
0400
0E00
0400
ENDCHAR
STARTCHAR char44
ENCODING 44
SWIDTH 0 0
DWIDTH 14 0
BBX 5 7 2 -5
BITMAP
0000
0000
10
38
10
38
50
E0
40
ENDCHAR
STARTCHAR char45
ENCODING 45
SWIDTH 0 0
DWIDTH 14 0
BBX 11 3 0 5
BITMAP
0000
0000
5540
FFE0
5540
ENDCHAR
STARTCHAR char46
ENCODING 46
SWIDTH 0 0
DWIDTH 14 0
BBX 3 3 4 -1
BITMAP
0000
0000
40
E0
40
ENDCHAR
STARTCHAR char47
ENCODING 47
SWIDTH 0 0
DWIDTH 14 0
BBX 11 11 0 1
BITMAP
0000
0000
0040
00E0
0140
0380
0500
0E00
1400
3800
5000
E000
4000
ENDCHAR
STARTCHAR char48
ENCODING 48
SWIDTH 0 0
DWIDTH 14 0
BBX 11 15 0 -1
BITMAP
0000
0000
1500
3F80
5540
E0E0
4140
E3E0
4540
EEE0
5440
F8E0
5040
E0E0
5540
3F80
1500
ENDCHAR
STARTCHAR char49
ENCODING 49
SWIDTH 0 0
DWIDTH 14 0
BBX 7 15 2 -1
BITMAP
0000
0000
10
38
50
F8
50
38
10
38
10
38
10
38
54
FE
54
ENDCHAR
STARTCHAR char50
ENCODING 50
SWIDTH 0 0
DWIDTH 14 0
BBX 11 15 0 -1
BITMAP
0000
0000
1500
3F80
5540
E0E0
4040
00E0
0140
0380
0500
0E00
1400
3800
5540
FFE0
5540
ENDCHAR
STARTCHAR char51
ENCODING 51
SWIDTH 0 0
DWIDTH 14 0
BBX 11 15 0 -1
BITMAP
0000
0000
5540
FFE0
5540
0380
0500
0E00
0500
0380
0140
00E0
4040
E0E0
5540
3F80
1500
ENDCHAR
STARTCHAR char52
ENCODING 52
SWIDTH 0 0
DWIDTH 14 0
BBX 11 15 0 -1
BITMAP
0000
0000
0100
0380
0500
0F80
1500
3B80
5100
E380
5540
FFE0
5540
0380
0100
0380
0100
ENDCHAR
STARTCHAR char53
ENCODING 53
SWIDTH 0 0
DWIDTH 14 0
BBX 11 15 0 -1
BITMAP
0000
0000
5540
FFE0
5540
E000
5500
FF80
5540
00E0
0040
00E0
4040
E0E0
5540
3F80
1500
ENDCHAR
STARTCHAR char54
ENCODING 54
SWIDTH 0 0
DWIDTH 14 0
BBX 11 15 0 -1
BITMAP
0000
0000
0540
0FE0
1540
3800
5000
E000
5500
FF80
5540
E0E0
4040
E0E0
5540
3F80
1500
ENDCHAR
STARTCHAR char55
ENCODING 55
SWIDTH 0 0
DWIDTH 14 0
BBX 11 15 0 -1
BITMAP
0000
0000
5540
FFE0
5540
00E0
0140
0380
0500
0E00
1400
3800
1000
3800
1000
3800
1000
ENDCHAR
STARTCHAR char56
ENCODING 56
SWIDTH 0 0
DWIDTH 14 0
BBX 11 15 0 -1
BITMAP
0000
0000
1500
3F80
5540
E0E0
4040
E0E0
5540
3F80
5540
E0E0
4040
E0E0
5540
3F80
1500
ENDCHAR
STARTCHAR char57
ENCODING 57
SWIDTH 0 0
DWIDTH 14 0
BBX 11 15 0 -1
BITMAP
0000
0000
1500
3F80
5540
E0E0
4040
E0E0
5540
3FE0
1540
00E0
0140
0380
5500
FE00
5400
ENDCHAR
STARTCHAR char58
ENCODING 58
SWIDTH 0 0
DWIDTH 14 0
BBX 4 11 4 -1
BITMAP
0000
0000
40
E0
40
00
00
00
00
00
40
E0
40
ENDCHAR
STARTCHAR char59
ENCODING 59
SWIDTH 0 0
DWIDTH 14 0
BBX 5 15 2 -5
BITMAP
0000
0000
10
38
10
00
00
00
00
00
10
38
10
38
50
E0
40
ENDCHAR
STARTCHAR char60
ENCODING 60
SWIDTH 0 0
DWIDTH 14 0
BBX 9 15 0 -1
BITMAP
0000
0000
0100
0380
0500
0E00
1400
3800
5000
E000
5000
3800
1400
0E00
0500
0380
0100
ENDCHAR
STARTCHAR char61
ENCODING 61
SWIDTH 0 0
DWIDTH 14 0
BBX 11 7 0 3
BITMAP
0000
0000
5540
FFE0
5540
0000
5540
FFE0
5540
ENDCHAR
STARTCHAR char62
ENCODING 62
SWIDTH 0 0
DWIDTH 14 0
BBX 9 15 2 -1
BITMAP
0000
0000
4000
E000
5000
3800
1400
0E00
0500
0380
0500
0E00
1400
3800
5000
E000
4000
ENDCHAR
STARTCHAR char63
ENCODING 63
SWIDTH 0 0
DWIDTH 14 0
BBX 11 15 0 -1
BITMAP
0000
0000
1500
3F80
5540
E0E0
4040
00E0
0140
0380
0500
0E00
0400
0000
0400
0E00
0400
ENDCHAR
STARTCHAR char64
ENCODING 64
SWIDTH 0 0
DWIDTH 14 0
BBX 11 15 0 -1
BITMAP
0000
0000
1500
3F80
5540
E0E0
4140
E3E0
4540
EEE0
4540
EFE0
4540
E000
5500
3F80
1500
ENDCHAR
STARTCHAR char65
ENCODING 65
SWIDTH 0 0
DWIDTH 14 0
BBX 11 15 0 -1
BITMAP
0000
0000
0400
0E00
1500
3B80
5140
E0E0
4040
E0E0
5540
FFE0
5540
E0E0
4040
E0E0
4040
ENDCHAR
STARTCHAR char66
ENCODING 66
SWIDTH 0 0
DWIDTH 14 0
BBX 11 15 0 -1
BITMAP
0000
0000
5500
FF80
5540
E0E0
4040
E0E0
5540
FF80
5540
E0E0
4040
E0E0
5540
FF80
5500
ENDCHAR
STARTCHAR char67
ENCODING 67
SWIDTH 0 0
DWIDTH 14 0
BBX 11 15 0 -1
BITMAP
0000
0000
1500
3F80
5540
E0E0
4040
E000
4000
E000
4000
E000
4040
E0E0
5540
3F80
1500
ENDCHAR
STARTCHAR char68
ENCODING 68
SWIDTH 0 0
DWIDTH 14 0
BBX 11 15 0 -1
BITMAP
0000
0000
5500
FF80
5540
E0E0
4040
E0E0
4040
E0E0
4040
E0E0
4040
E0E0
5540
FF80
5500
ENDCHAR
STARTCHAR char69
ENCODING 69
SWIDTH 0 0
DWIDTH 14 0
BBX 11 15 0 -1
BITMAP
0000
0000
5540
FFE0
5540
E000
4000
E000
5500
FF80
5500
E000
4000
E000
5540
FFE0
5540
ENDCHAR
STARTCHAR char70
ENCODING 70
SWIDTH 0 0
DWIDTH 14 0
BBX 11 15 0 -1
BITMAP
0000
0000
5540
FFE0
5540
E000
4000
E000
5500
FF80
5500
E000
4000
E000
4000
E000
4000
ENDCHAR
STARTCHAR char71
ENCODING 71
SWIDTH 0 0
DWIDTH 14 0
BBX 11 15 0 -1
BITMAP
0000
0000
1500
3F80
5540
E0E0
4040
E000
4140
E3E0
4140
E0E0
4040
E0E0
5540
3F80
1500
ENDCHAR
STARTCHAR char72
ENCODING 72
SWIDTH 0 0
DWIDTH 14 0
BBX 11 15 0 -1
BITMAP
0000
0000
4040
E0E0
4040
E0E0
4040
E0E0
5540
FFE0
5540
E0E0
4040
E0E0
4040
E0E0
4040
ENDCHAR
STARTCHAR char73
ENCODING 73
SWIDTH 0 0
DWIDTH 14 0
BBX 7 15 2 -1
BITMAP
0000
0000
54
FE
54
38
10
38
10
38
10
38
10
38
54
FE
54
ENDCHAR
STARTCHAR char74
ENCODING 74
SWIDTH 0 0
DWIDTH 14 0
BBX 11 15 0 -1
BITMAP
0000
0000
0540
0FE0
0540
0380
0100
0380
0100
0380
0100
0380
4100
E380
5500
3E00
1400
ENDCHAR
STARTCHAR char75
ENCODING 75
SWIDTH 0 0
DWIDTH 14 0
BBX 11 15 0 -1
BITMAP
0000
0000
4040
E0E0
4140
E380
4500
EE00
5400
F800
5400
EE00
4500
E380
4140
E0E0
4040
ENDCHAR
STARTCHAR char76
ENCODING 76
SWIDTH 0 0
DWIDTH 14 0
BBX 11 15 0 -1
BITMAP
0000
0000
4000
E000
4000
E000
4000
E000
4000
E000
4000
E000
4000
E000
5540
FFE0
5540
ENDCHAR
STARTCHAR char77
ENCODING 77
SWIDTH 0 0
DWIDTH 14 0
BBX 11 15 0 -1
BITMAP
0000
0000
4040
E0E0
5140
FBE0
5540
EEE0
4440
EEE0
4440
E0E0
4040
E0E0
4040
E0E0
4040
ENDCHAR
STARTCHAR char78
ENCODING 78
SWIDTH 0 0
DWIDTH 14 0
BBX 11 15 0 -1
BITMAP
0000
0000
4040
E0E0
4040
E0E0
5040
F8E0
5440
EEE0
4540
E3E0
4140
E0E0
4040
E0E0
4040
ENDCHAR
STARTCHAR char79
ENCODING 79
SWIDTH 0 0
DWIDTH 14 0
BBX 11 15 0 -1
BITMAP
0000
0000
1500
3F80
5540
E0E0
4040
E0E0
4040
E0E0
4040
E0E0
4040
E0E0
5540
3F80
1500
ENDCHAR
STARTCHAR char80
ENCODING 80
SWIDTH 0 0
DWIDTH 14 0
BBX 11 15 0 -1
BITMAP
0000
0000
5500
FF80
5540
E0E0
4040
E0E0
5540
FF80
5500
E000
4000
E000
4000
E000
4000
ENDCHAR
STARTCHAR char81
ENCODING 81
SWIDTH 0 0
DWIDTH 14 0
BBX 11 15 0 -1
BITMAP
0000
0000
1500
3F80
5540
E0E0
4040
E0E0
4040
E0E0
4440
EEE0
4540
E380
5540
3EE0
1440
ENDCHAR
STARTCHAR char82
ENCODING 82
SWIDTH 0 0
DWIDTH 14 0
BBX 11 15 0 -1
BITMAP
0000
0000
5500
FF80
5540
E0E0
4040
E0E0
5540
FF80
5500
EE00
4500
E380
4140
E0E0
4040
ENDCHAR
STARTCHAR char83
ENCODING 83
SWIDTH 0 0
DWIDTH 14 0
BBX 11 15 0 -1
BITMAP
0000
0000
1500
3F80
5540
E0E0
4040
E000
5500
3F80
1540
00E0
4040
E0E0
5540
3F80
1500
ENDCHAR
STARTCHAR char84
ENCODING 84
SWIDTH 0 0
DWIDTH 14 0
BBX 11 15 0 -1
BITMAP
0000
0000
5540
FFE0
5540
0E00
0400
0E00
0400
0E00
0400
0E00
0400
0E00
0400
0E00
0400
ENDCHAR
STARTCHAR char85
ENCODING 85
SWIDTH 0 0
DWIDTH 14 0
BBX 11 15 0 -1
BITMAP
0000
0000
4040
E0E0
4040
E0E0
4040
E0E0
4040
E0E0
4040
E0E0
4040
E0E0
5540
3F80
1500
ENDCHAR
STARTCHAR char86
ENCODING 86
SWIDTH 0 0
DWIDTH 14 0
BBX 11 15 0 -1
BITMAP
0000
0000
4040
E0E0
4040
E0E0
4040
E0E0
4040
E0E0
4040
E0E0
5140
3B80
1500
0E00
0400
ENDCHAR
STARTCHAR char87
ENCODING 87
SWIDTH 0 0
DWIDTH 14 0
BBX 11 15 0 -1
BITMAP
0000
0000
4040
E0E0
4040
E0E0
4040
E0E0
4440
EEE0
4440
EEE0
5540
FBE0
5140
E0E0
4040
ENDCHAR
STARTCHAR char88
ENCODING 88
SWIDTH 0 0
DWIDTH 14 0
BBX 11 15 0 -1
BITMAP
0000
0000
4040
E0E0
4040
E0E0
5140
3B80
1500
0E00
1500
3B80
5140
E0E0
4040
E0E0
4040
ENDCHAR
STARTCHAR char89
ENCODING 89
SWIDTH 0 0
DWIDTH 14 0
BBX 11 15 0 -1
BITMAP
0000
0000
4040
E0E0
4040
E0E0
5140
3B80
1500
0E00
0400
0E00
0400
0E00
0400
0E00
0400
ENDCHAR
STARTCHAR char90
ENCODING 90
SWIDTH 0 0
DWIDTH 14 0
BBX 11 15 0 -1
BITMAP
0000
0000
5540
FFE0
5540
00E0
0140
0380
0500
0E00
1400
3800
5000
E000
5540
FFE0
5540
ENDCHAR
STARTCHAR char91
ENCODING 91
SWIDTH 0 0
DWIDTH 14 0
BBX 7 15 2 -1
BITMAP
0000
0000
54
FE
54
E0
40
E0
40
E0
40
E0
40
E0
54
FE
54
ENDCHAR
STARTCHAR char92
ENCODING 92
SWIDTH 0 0
DWIDTH 14 0
BBX 11 11 0 1
BITMAP
0000
0000
4000
E000
5000
3800
1400
0E00
0500
0380
0140
00E0
0040
ENDCHAR
STARTCHAR char93
ENCODING 93
SWIDTH 0 0
DWIDTH 14 0
BBX 7 15 2 -1
BITMAP
0000
0000
54
FE
54
0E
04
0E
04
0E
04
0E
04
0E
54
FE
54
ENDCHAR
STARTCHAR char94
ENCODING 94
SWIDTH 0 0
DWIDTH 14 0
BBX 11 7 0 7
BITMAP
0000
0000
0400
0E00
1500
3B80
5140
E0E0
4040
ENDCHAR
STARTCHAR char95
ENCODING 95
SWIDTH 0 0
DWIDTH 14 0
BBX 11 3 0 -1
BITMAP
0000
0000
5540
FFE0
5540
ENDCHAR
STARTCHAR char96
ENCODING 96
SWIDTH 0 0
DWIDTH 14 0
BBX 7 7 2 7
BITMAP
0000
0000
40
E0
50
38
14
0E
04
ENDCHAR
STARTCHAR char97
ENCODING 97
SWIDTH 0 0
DWIDTH 14 0
BBX 11 11 0 -1
BITMAP
0000
0000
1500
3F80
1540
00E0
1540
3FE0
5540
E0E0
5540
3FE0
1540
ENDCHAR
STARTCHAR char98
ENCODING 98
SWIDTH 0 0
DWIDTH 14 0
BBX 11 15 0 -1
BITMAP
0000
0000
4000
E000
4000
E000
4500
EF80
5540
F8E0
5040
E0E0
5040
F8E0
5540
EF80
4500
ENDCHAR
STARTCHAR char99
ENCODING 99
SWIDTH 0 0
DWIDTH 14 0
BBX 11 11 0 -1
BITMAP
0000
0000
1500
3F80
5540
E0E0
4040
E000
4040
E0E0
5540
3F80
1500
ENDCHAR
STARTCHAR char100
ENCODING 100
SWIDTH 0 0
DWIDTH 14 0
BBX 11 15 0 -1
BITMAP
0000
0000
0040
00E0
0040
00E0
1440
3EE0
5540
E3E0
4140
E0E0
4140
E3E0
5540
3EE0
1440
ENDCHAR
STARTCHAR char101
ENCODING 101
SWIDTH 0 0
DWIDTH 14 0
BBX 11 11 0 -1
BITMAP
0000
0000
1500
3F80
5540
E0E0
5540
FFE0
5540
E000
5500
3F80
1500
ENDCHAR
STARTCHAR char102
ENCODING 102
SWIDTH 0 0
DWIDTH 14 0
BBX 9 15 2 -1
BITMAP
0000
0000
0500
0F80
1500
3800
5400
FE00
5400
3800
1000
3800
1000
3800
1000
3800
1000
ENDCHAR
STARTCHAR char103
ENCODING 103
SWIDTH 0 0
DWIDTH 14 0
BBX 11 15 0 -5
BITMAP
0000
0000
1440
3EE0
5540
E3E0
4140
E0E0
4140
E3E0
5540
3EE0
1440
00E0
1540
3F80
1500
ENDCHAR
STARTCHAR char104
ENCODING 104
SWIDTH 0 0
DWIDTH 14 0
BBX 11 15 0 -1
BITMAP
0000
0000
4000
E000
4000
E000
4500
EF80
5540
F8E0
5040
E0E0
4040
E0E0
4040
E0E0
4040
ENDCHAR
STARTCHAR char105
ENCODING 105
SWIDTH 0 0
DWIDTH 14 0
BBX 7 15 2 -1
BITMAP
0000
0000
10
38
10
00
50
F8
50
38
10
38
10
38
54
FE
54
ENDCHAR
STARTCHAR char106
ENCODING 106
SWIDTH 0 0
DWIDTH 14 0
BBX 9 19 0 -5
BITMAP
0000
0000
0100
0380
0100
0000
0500
0F80
0500
0380
0100
0380
0100
0380
0100
0380
4100
E380
5500
3E00
1400
ENDCHAR
STARTCHAR char107
ENCODING 107
SWIDTH 0 0
DWIDTH 14 0
BBX 11 15 0 -1
BITMAP
0000
0000
4000
E000
4000
E000
4040
E0E0
4140
E380
5500
FE00
5500
E380
4140
E0E0
4040
ENDCHAR
STARTCHAR char108
ENCODING 108
SWIDTH 0 0
DWIDTH 14 0
BBX 7 15 2 -1
BITMAP
0000
0000
50
F8
50
38
10
38
10
38
10
38
10
38
54
FE
54
ENDCHAR
STARTCHAR char109
ENCODING 109
SWIDTH 0 0
DWIDTH 14 0
BBX 11 11 0 -1
BITMAP
0000
0000
5100
FB80
5540
EEE0
4440
EEE0
4440
EEE0
4440
EEE0
4440
ENDCHAR
STARTCHAR char110
ENCODING 110
SWIDTH 0 0
DWIDTH 14 0
BBX 11 11 0 -1
BITMAP
0000
0000
4500
EF80
5540
F8E0
5040
E0E0
4040
E0E0
4040
E0E0
4040
ENDCHAR
STARTCHAR char111
ENCODING 111
SWIDTH 0 0
DWIDTH 14 0
BBX 11 11 0 -1
BITMAP
0000
0000
1500
3F80
5540
E0E0
4040
E0E0
4040
E0E0
5540
3F80
1500
ENDCHAR
STARTCHAR char112
ENCODING 112
SWIDTH 0 0
DWIDTH 14 0
BBX 11 15 0 -5
BITMAP
0000
0000
4500
EF80
5540
F8E0
5040
E0E0
5040
F8E0
5540
EF80
4500
E000
4000
E000
4000
ENDCHAR
STARTCHAR char113
ENCODING 113
SWIDTH 0 0
DWIDTH 14 0
BBX 11 15 0 -5
BITMAP
0000
0000
1440
3EE0
5540
E3E0
4140
E0E0
4140
E3E0
5540
3EE0
1440
00E0
0040
00E0
0040
ENDCHAR
STARTCHAR char114
ENCODING 114
SWIDTH 0 0
DWIDTH 14 0
BBX 11 11 0 -1
BITMAP
0000
0000
4500
EF80
5540
F8E0
5040
E000
4000
E000
4000
E000
4000
ENDCHAR
STARTCHAR char115
ENCODING 115
SWIDTH 0 0
DWIDTH 14 0
BBX 11 11 0 -1
BITMAP
0000
0000
1500
3F80
5500
E000
5500
3F80
1540
00E0
5540
FF80
5500
ENDCHAR
STARTCHAR char116
ENCODING 116
SWIDTH 0 0
DWIDTH 14 0
BBX 11 15 0 -1
BITMAP
0000
0000
1000
3800
1000
3800
5500
FF80
5500
3800
1000
3800
1040
38E0
1540
0F80
0500
ENDCHAR
STARTCHAR char117
ENCODING 117
SWIDTH 0 0
DWIDTH 14 0
BBX 11 11 0 -1
BITMAP
0000
0000
4040
E0E0
4040
E0E0
4040
E0E0
4140
E3E0
5540
3EE0
1440
ENDCHAR
STARTCHAR char118
ENCODING 118
SWIDTH 0 0
DWIDTH 14 0
BBX 11 11 0 -1
BITMAP
0000
0000
4040
E0E0
4040
E0E0
4040
E0E0
5140
3B80
1500
0E00
0400
ENDCHAR
STARTCHAR char119
ENCODING 119
SWIDTH 0 0
DWIDTH 14 0
BBX 11 11 0 -1
BITMAP
0000
0000
4040
E0E0
4040
E0E0
4440
EEE0
4440
EEE0
5540
3B80
1100
ENDCHAR
STARTCHAR char120
ENCODING 120
SWIDTH 0 0
DWIDTH 14 0
BBX 11 11 0 -1
BITMAP
0000
0000
4040
E0E0
5140
3B80
1500
0E00
1500
3B80
5140
E0E0
4040
ENDCHAR
STARTCHAR char121
ENCODING 121
SWIDTH 0 0
DWIDTH 14 0
BBX 11 15 0 -5
BITMAP
0000
0000
4040
E0E0
4040
E0E0
4040
E0E0
4140
E3E0
5540
3EE0
1440
00E0
1540
3F80
1500
ENDCHAR
STARTCHAR char122
ENCODING 122
SWIDTH 0 0
DWIDTH 14 0
BBX 11 11 0 -1
BITMAP
0000
0000
5540
FFE0
5540
0380
0500
0E00
1400
3800
5540
FFE0
5540
ENDCHAR
STARTCHAR char123
ENCODING 123
SWIDTH 0 0
DWIDTH 14 0
BBX 11 15 0 -1
BITMAP
0000
0000
0140
03E0
0540
0E00
0400
0E00
5400
F800
5400
0E00
0400
0E00
0540
03E0
0140
ENDCHAR
STARTCHAR char124
ENCODING 124
SWIDTH 0 0
DWIDTH 14 0
BBX 3 15 4 -1
BITMAP
0000
0000
40
E0
40
E0
40
E0
40
E0
40
E0
40
E0
40
E0
40
ENDCHAR
STARTCHAR char125
ENCODING 125
SWIDTH 0 0
DWIDTH 14 0
BBX 11 15 0 -1
BITMAP
0000
0000
5000
F800
5400
0E00
0400
0E00
0540
03E0
0540
0E00
0400
0E00
5400
F800
5000
ENDCHAR
STARTCHAR char126
ENCODING 126
SWIDTH 0 0
DWIDTH 14 0
BBX 11 7 0 3
BITMAP
0000
0000
1040
38E0
5440
EEE0
4540
E380
4100
ENDCHAR
ENDFONT
